# xmcd
#
# Track frame offsets: 
#        150
#        11864
#        28976
#        37331
#        48810
#        65357
#        85058
#        102670
#        116676
#        138225
#        152754
#        166180
#        177943
#        193958
#
# Disc length: 2787 seconds
#
# Revision: 0
# Processed by: cddbd v1.5.2PL0 Copyright (c) Steve Scherf et al.
# Submitted via: ExactAudioCopyFreeDBPlugin 1.0
#
DISCID=c30ae10e
DTITLE=Johnny Bremner - Precious Memories
DYEAR=2013
DGENRE=Country
TTITLE0=Doing It By The Book
TTITLE1=I've Got A Mansion
TTITLE2=Out Of His Great Love
TTITLE3=I'm Free
TTITLE4=When All Of God's Singers Go Home
TTITLE5=Because He Lives
TTITLE6=Don't Overlook Salvation
TTITLE7=Where Could I Go But To The Lord
TTITLE8=It's No Secret
TTITLE9=My Bible
TTITLE10=Precious Memories
TTITLE11=Thank you Lord For Your Blessings
TTITLE12=Suppertime
TTITLE13=Who At My Door Is Standing
EXTD=
EXTT0=
EXTT1=
EXTT2=
EXTT3=
EXTT4=
EXTT5=
EXTT6=
EXTT7=
EXTT8=
EXTT9=
EXTT10=
EXTT11=
EXTT12=
EXTT13=
PLAYORDER=
